<?xml version="1.0" encoding="utf-8"?>
<!-- Uploaded to: SVG Repo, www.svgrepo.com, Generator: SVG Repo Mixer Tools -->
<svg width="800px" height="800px" viewBox="0 0 1024 1024" class="icon"  version="1.1" xmlns="http://www.w3.org/2000/svg"><path d="M682.6 238.9c0 12.3-1.3 24.4-3.8 36-4.3 20-12.2 38.8-22.8 55.5-30.2 47.3-83.2 78.6-143.4 78.6-59.7 0-112.2-30.8-142.6-77.3-11.4-17.4-19.6-37.1-24-58.1-2.3-11.2-3.5-22.8-3.5-34.6 0-93.9 76.1-170.1 170.1-170.1 9.5 0 18.9 0.8 28 2.3 7.1 1.2 14.1 2.8 20.8 4.8 70.1 20.9 121.2 85.9 121.2 162.9z" fill="#843A5F" /><path d="M512.6 412c-58.7 0-113-29.4-145.1-78.7-11.8-18.1-20-38-24.4-59.2-2.4-11.5-3.6-23.4-3.6-35.2 0-95.4 77.6-173.1 173.1-173.1 9.6 0 19.1 0.8 28.5 2.3 7.1 1.2 14.3 2.8 21.2 4.9 34.9 10.5 66.4 32.3 88.5 61.6 22.9 30.2 34.9 66.3 34.9 104.3 0 12.4-1.3 24.7-3.9 36.6-4.3 20.1-12.1 39.1-23.3 56.5-32 50-86.6 80-145.9 80z m0-340.2c-92.1 0-167.1 75-167.1 167.1 0 11.5 1.2 22.9 3.5 34 4.2 20.4 12.2 39.6 23.6 57.1 31 47.6 83.3 75.9 140 75.9 57.3 0 110-28.9 140.9-77.2 10.7-16.8 18.3-35.1 22.4-54.5 2.5-11.5 3.7-23.4 3.7-35.3 0-73.3-49-139.1-119.1-160.1-6.7-2-13.6-3.6-20.5-4.7-9-1.6-18.2-2.3-27.4-2.3z" fill="#843A5F" /><path d="M511.6 653.2m-214 0a214 214 0 1 0 428 0 214 214 0 1 0-428 0Z" fill="#AE9AA4" /><path d="M511.6 870.3c-58 0-112.5-22.6-153.5-63.6s-63.6-95.5-63.6-153.5 22.6-112.5 63.6-153.5 95.5-63.6 153.5-63.6 112.5 22.6 153.5 63.6 63.6 95.5 63.6 153.5-22.6 112.5-63.6 153.5-95.5 63.6-153.5 63.6z m0-428.1c-116.4 0-211 94.7-211 211s94.7 211 211 211 211-94.7 211-211-94.6-211-211-211z" fill="#843A5F" /><path d="M511.6 574.5l-70.4-122H582z" fill="#FFFFFF" /><path d="M511.6 580.5l-75.6-131h151.3l-75.7 131z m-65.2-125l65.2 113 65.2-113H446.4z" fill="#843A5F" /><path d="M370 179.7v193.7c0 43.5 35.6 79.1 79.1 79.1h127.8c43.5 0 79.1-35.6 79.1-79.1V179.7" fill="#E6D8DF" /><path d="M576.9 455.5H449.1c-45.3 0-82.1-36.8-82.1-82.1V179.7h6v193.7c0 42 34.1 76.1 76.1 76.1h127.8c42 0 76.1-34.1 76.1-76.1V179.7h6v193.7c0 45.3-36.9 82.1-82.1 82.1z" fill="#843A5F" /><path d="M432.4 261.8m-67.9 0a67.9 67.9 0 1 0 135.8 0 67.9 67.9 0 1 0-135.8 0Z" fill="#FFFFFF" /><path d="M432.4 332.7c-39.1 0-70.9-31.8-70.9-70.9 0-39.1 31.8-70.9 70.9-70.9 39.1 0 70.9 31.8 70.9 70.9 0 39.1-31.8 70.9-70.9 70.9z m0-135.8c-35.8 0-64.9 29.1-64.9 64.9s29.1 64.9 64.9 64.9 64.9-29.1 64.9-64.9-29.1-64.9-64.9-64.9z" fill="#843A5F" /><path d="M593 261.8m-67.9 0a67.9 67.9 0 1 0 135.8 0 67.9 67.9 0 1 0-135.8 0Z" fill="#FFFFFF" /><path d="M593 332.7c-39.1 0-70.9-31.8-70.9-70.9 0-39.1 31.8-70.9 70.9-70.9 39.1 0 70.9 31.8 70.9 70.9 0 39.1-31.8 70.9-70.9 70.9z m0-135.8c-35.8 0-64.9 29.1-64.9 64.9s29.1 64.9 64.9 64.9 64.9-29.1 64.9-64.9-29.1-64.9-64.9-64.9z" fill="#843A5F" /><path d="M532.4 276.5h-6c0-7.4-6-13.4-13.4-13.4s-13.4 6-13.4 13.4h-6c0-10.7 8.7-19.4 19.4-19.4s19.4 8.7 19.4 19.4zM512.8 408.5c-23.1 0-46.5-5.6-46.5-16.3h6c0 3.5 14.3 10.3 40.5 10.3s40.5-6.8 40.5-10.3h6c0 10.7-23.4 16.3-46.5 16.3z" fill="#843A5F" /><path d="M749.5 916.8H275c-6.6 0-12-5.4-12-12V529.2c0-6.6 5.4-12 12-12h474.5c6.6 0 12 5.4 12 12v375.6c0 6.6-5.4 12-12 12z" fill="#FFFFFF" /><path d="M749.5 919.8H275c-8.3 0-15-6.7-15-15V529.2c0-8.3 6.7-15 15-15h474.5c8.3 0 15 6.7 15 15v375.6c0 8.3-6.7 15-15 15zM275 520.2c-5 0-9 4-9 9v375.6c0 5 4 9 9 9h474.5c5 0 9-4 9-9V529.2c0-5-4-9-9-9H275z" fill="#843A5F" /><path d="M650.7 134.6c-21.8-28.8-52.5-50.4-86.8-61l-1.7-0.5c-7-2.1-14.1-3.7-21.2-4.9h-0.1l-2.8-0.5c-8.4-1.3-17-1.9-25.6-1.9-95.4 0-173.1 77.6-173.1 173.1 0 11.9 1.2 23.7 3.6 35.2l0.4 1.8 1.7 0.5c6.8 2 13.8 3.7 20.8 4.8l3.6 0.6c8.3 1.2 16.8 1.8 25.2 1.8 38.5 0 74.9-12.4 105.3-35.7 22-16.9 39.8-39 51.5-64.1 3.1 6.2 6.5 12.2 10.3 18 22 33.5 55.1 58.6 93.1 70.5 1.5 0.5 2.9 0.9 4.4 1.3 6.1 1.7 12.5 3.2 18.8 4.2l2.8 0.5 0.6-2.8c2.6-11.9 3.9-24.2 3.9-36.6 0.2-38-11.8-74.1-34.7-104.3z" fill="#843A5F" /><path d="M785 746.3c-12.9 18-33.9 18-46.8 0-12.9-18-12.9-47.1 0-65 12.9-18 33.9-18 46.8 0 13 17.9 13 47.1 0 65z" fill="#E6D8DF" /><path d="M761.6 762.8c-9.8 0-19-5.2-25.8-14.7-13.6-18.9-13.6-49.7 0-68.6 6.8-9.5 16-14.7 25.8-14.7s19 5.2 25.8 14.7c13.6 18.9 13.6 49.7 0 68.6-6.8 9.5-15.9 14.7-25.8 14.7z m0-92c-7.8 0-15.3 4.3-21 12.2-12.2 17-12.2 44.6 0 61.5 5.7 7.9 13.1 12.2 21 12.2 7.8 0 15.3-4.3 21-12.2 12.2-17 12.2-44.6 0-61.5-5.7-7.9-13.1-12.2-21-12.2z" fill="#843A5F" /><path d="M286.9 746.3c-12.9 18-33.9 18-46.8 0-12.9-18-12.9-47.1 0-65 12.9-18 33.9-18 46.8 0 12.9 17.9 12.9 47.1 0 65z" fill="#E6D8DF" /><path d="M263.5 762.8c-9.8 0-19-5.2-25.8-14.7-13.6-18.9-13.6-49.7 0-68.6 6.8-9.5 16-14.7 25.8-14.7s19 5.2 25.8 14.7c13.6 18.9 13.6 49.7 0 68.6-6.8 9.5-16 14.7-25.8 14.7z m0-92c-7.8 0-15.3 4.3-21 12.2-12.2 17-12.2 44.6 0 61.5 5.7 7.9 13.1 12.2 21 12.2 7.8 0 15.3-4.3 21-12.2 12.2-17 12.2-44.6 0-61.5-5.7-7.9-13.2-12.2-21-12.2z" fill="#843A5F" /><path d="M635.3 888.6H432.5c-6.6 0-12-5.4-12-12V598.3c0-6.6 5.4-12 12-12h202.8c6.6 0 12 5.4 12 12v278.4c0 6.5-5.4 11.9-12 11.9z" fill="#E6D8DF" /><path d="M635.3 891.6H432.5c-8.3 0-15-6.7-15-15V598.3c0-8.3 6.7-15 15-15h202.8c8.3 0 15 6.7 15 15v278.4c0 8.2-6.7 14.9-15 14.9zM432.5 589.3c-5 0-9 4-9 9v278.4c0 5 4 9 9 9h202.8c5 0 9-4 9-9V598.3c0-5-4-9-9-9H432.5z" fill="#843A5F" /><path d="M597.5 850.8H394.8c-6.6 0-12-5.4-12-12V560.5c0-6.6 5.4-12 12-12h202.8c6.6 0 12 5.4 12 12v278.4c-0.1 6.5-5.5 11.9-12.1 11.9z" fill="#FFFFFF" /><path d="M597.5 853.8H394.8c-8.3 0-15-6.7-15-15V560.5c0-8.3 6.7-15 15-15h202.8c8.3 0 15 6.7 15 15v278.4c-0.1 8.2-6.8 14.9-15.1 14.9zM394.8 551.5c-5 0-9 4-9 9v278.4c0 5 4 9 9 9h202.8c5 0 9-4 9-9V560.5c0-5-4-9-9-9H394.8z" fill="#843A5F" /><path d="M419.6 614.8h25l51 81.2 51-81.2h25l-51 79.2H555v19.8h-46.9v19.8H555v19.8h-46.9V793h-24v-39.6h-46.9v-19.8h46.9v-19.8h-46.9V694h33.3l-50.9-79.2z" fill="#843A5F" /></svg>