<?xml version="1.0" encoding="utf-8"?>
<!-- Uploaded to: SVG Repo, www.svgrepo.com, Generator: SVG Repo Mixer Tools -->
<svg fill="#000000" version="1.1" id="Layer_1" xmlns="http://www.w3.org/2000/svg" xmlns:xlink="http://www.w3.org/1999/xlink" 
	 width="800px" height="800px" viewBox="0 0 256 173" enable-background="new 0 0 256 173" xml:space="preserve">
<path d="M128.253,56.864c15.186,0,27.432-12.247,27.432-27.432S143.536,2,128.253,2
	c-15.186,0-27.432,12.247-27.432,27.432C100.918,44.716,113.165,56.864,128.253,56.864z M64.571,136.32h-49.28
	c-15.969,0-16.851-24.395,0.294-24.395H58.3l24.493-36.054c7.25-9.895,15.48-14.598,27.138-14.598h36.544
	c11.659,0,19.888,4.311,27.138,14.598l24.591,36.054h43.01c17.243,0,16.165,24.395,0.588,24.395h-49.28
	c-3.919,0-8.622-1.372-11.365-5.584l-18.811-26.844l-0.098,67.209H94.844l-0.098-67.209l-18.811,26.844
	C73.192,134.85,68.49,136.32,64.571,136.32z"/>
<path d="M55.742,83.593L40.703,68.5l15.039-15.039V83.593z M8.792,86.45l15.039-15.039l0.647,0.593
	c3.558,3.396,9.217,3.396,12.613,0l0.647-0.647l15.147,15.039H8.792V86.45z M6.097,53.461L21.082,68.5L6.043,83.593L6.097,53.461z
	 M52.885,50.604L34.396,69.093c-1.887,1.887-5.229,1.833-7.169-0.054L8.792,50.604H52.885z M2,90.493h58V46.507H2V90.493z"/>
<path d="M246.75,63.117v29.324H196v-50.75h41.538l-7.27,7.25H203.25v36.25h36.25V70.346L246.75,63.117z M254,45.693l-5.119-5.134
	l-27.474,27.387l-8.485-8.485l-5.126,5.126L221.4,78.192L254,45.693z"/>
<g id="shopping_cart">
</g>
<g id="cross">
</g>
<g id="leaf">
</g>
</svg>